# xmcd
#
# Track frame offsets:
#	182
#	19332
#	48102
#
# Disc length: 1019 seconds
#
# Revision: 0
# Processed by: cddbd v1.5.1PL0 Copyright (c) Steve Scherf et al.
# Submitted via: audiograbber 1.83.01
#
DISCID=1b03f903
DTITLE=Seduction - Two To Make It Right (Maxi)
DYEAR=1989
DGENRE=Pop
TTITLE0=Two To Make It Right (The Radio Mix)
TTITLE1=Two To Make It Right (The Club Mix)
TTITLE2=Two To Make It Right (The Hip House Vocal)
EXTD=
EXTT0=
EXTT1=
EXTT2=
PLAYORDER=
